{
	"asset":{
		"generator":"Khronos glTF Blender I/O v4.3.47",
		"version":"2.0"
	},
	"scene":0,
	"scenes":[
		{
			"name":"Scene",
			"nodes":[
				0,
				1,
				2,
				3,
				4,
				5,
				6
			]
		}
	],
	"nodes":[
		{
			"mesh":0,
			"name":"octopus1"
		},
		{
			"mesh":1,
			"name":"octopus2"
		},
		{
			"mesh":2,
			"name":"crab1"
		},
		{
			"mesh":3,
			"name":"crab2"
		},
		{
			"mesh":4,
			"name":"medusa1"
		},
		{
			"mesh":5,
			"name":"medusa2"
		},
		{
			"mesh":6,
			"name":"boss"
		}
	],
	"meshes":[
		{
			"name":"octopus1",
			"primitives":[
				{
					"attributes":{
						"POSITION":0,
						"NORMAL":1
					},
					"indices":2
				}
			]
		},
		{
			"name":"octopus2",
			"primitives":[
				{
					"attributes":{
						"POSITION":3,
						"NORMAL":4
					},
					"indices":5
				}
			]
		},
		{
			"name":"crab1",
			"primitives":[
				{
					"attributes":{
						"POSITION":6,
						"NORMAL":7
					},
					"indices":8
				}
			]
		},
		{
			"name":"crab2",
			"primitives":[
				{
					"attributes":{
						"POSITION":9,
						"NORMAL":10
					},
					"indices":11
				}
			]
		},
		{
			"name":"medusa1",
			"primitives":[
				{
					"attributes":{
						"POSITION":12,
						"NORMAL":13
					},
					"indices":14
				}
			]
		},
		{
			"name":"medusa2",
			"primitives":[
				{
					"attributes":{
						"POSITION":15,
						"NORMAL":16
					},
					"indices":17
				}
			]
		},
		{
			"name":"boss",
			"primitives":[
				{
					"attributes":{
						"POSITION":18,
						"NORMAL":19
					},
					"indices":8
				}
			]
		}
	],
	"accessors":[
		{
			"bufferView":0,
			"componentType":5126,
			"count":504,
			"max":[
				4,
				8,
				1.0000003576278687
			],
			"min":[
				-4,
				-1.3113415775478643e-07,
				-3.019916050561733e-07
			],
			"type":"VEC3"
		},
		{
			"bufferView":1,
			"componentType":5126,
			"count":504,
			"type":"VEC3"
		},
		{
			"bufferView":2,
			"componentType":5123,
			"count":504,
			"type":"SCALAR"
		},
		{
			"bufferView":3,
			"componentType":5126,
			"count":576,
			"max":[
				4.000000476837158,
				8,
				1.0000003576278687
			],
			"min":[
				-4,
				-1.7484555314695172e-07,
				-3.019916050561733e-07
			],
			"type":"VEC3"
		},
		{
			"bufferView":4,
			"componentType":5126,
			"count":576,
			"type":"VEC3"
		},
		{
			"bufferView":5,
			"componentType":5123,
			"count":576,
			"type":"SCALAR"
		},
		{
			"bufferView":6,
			"componentType":5126,
			"count":546,
			"max":[
				5.500000476837158,
				8,
				1.0000003576278687
			],
			"min":[
				-5.5,
				-1.3113417196564114e-07,
				-4.529873933734052e-07
			],
			"type":"VEC3"
		},
		{
			"bufferView":7,
			"componentType":5126,
			"count":546,
			"type":"VEC3"
		},
		{
			"bufferView":8,
			"componentType":5123,
			"count":546,
			"type":"SCALAR"
		},
		{
			"bufferView":9,
			"componentType":5126,
			"count":552,
			"max":[
				5.500000476837158,
				8,
				1.000000238418579
			],
			"min":[
				-5.5,
				-2.18556948539117e-07,
				-2.18556948539117e-07
			],
			"type":"VEC3"
		},
		{
			"bufferView":10,
			"componentType":5126,
			"count":552,
			"type":"VEC3"
		},
		{
			"bufferView":11,
			"componentType":5123,
			"count":552,
			"type":"SCALAR"
		},
		{
			"bufferView":12,
			"componentType":5126,
			"count":498,
			"max":[
				6.000000476837158,
				8,
				1.0000004768371582
			],
			"min":[
				-6,
				-1.7484555314695172e-07,
				-4.5298742179511464e-07
			],
			"type":"VEC3"
		},
		{
			"bufferView":13,
			"componentType":5126,
			"count":498,
			"type":"VEC3"
		},
		{
			"bufferView":14,
			"componentType":5123,
			"count":498,
			"type":"SCALAR"
		},
		{
			"bufferView":15,
			"componentType":5126,
			"count":486,
			"max":[
				6.000000476837158,
				8,
				1.0000004768371582
			],
			"min":[
				-6,
				-2.6226831550957286e-07,
				-4.5298742179511464e-07
			],
			"type":"VEC3"
		},
		{
			"bufferView":16,
			"componentType":5126,
			"count":486,
			"type":"VEC3"
		},
		{
			"bufferView":17,
			"componentType":5123,
			"count":486,
			"type":"SCALAR"
		},
		{
			"bufferView":18,
			"componentType":5126,
			"count":546,
			"max":[
				8,
				7,
				1.0000005960464478
			],
			"min":[
				-8,
				-2.18556948539117e-07,
				-6.039832101123466e-07
			],
			"type":"VEC3"
		},
		{
			"bufferView":19,
			"componentType":5126,
			"count":546,
			"type":"VEC3"
		}
	],
	"bufferViews":[
		{
			"buffer":0,
			"byteLength":6048,
			"byteOffset":0,
			"target":34962
		},
		{
			"buffer":0,
			"byteLength":6048,
			"byteOffset":6048,
			"target":34962
		},
		{
			"buffer":0,
			"byteLength":1008,
			"byteOffset":12096,
			"target":34963
		},
		{
			"buffer":0,
			"byteLength":6912,
			"byteOffset":13104,
			"target":34962
		},
		{
			"buffer":0,
			"byteLength":6912,
			"byteOffset":20016,
			"target":34962
		},
		{
			"buffer":0,
			"byteLength":1152,
			"byteOffset":26928,
			"target":34963
		},
		{
			"buffer":0,
			"byteLength":6552,
			"byteOffset":28080,
			"target":34962
		},
		{
			"buffer":0,
			"byteLength":6552,
			"byteOffset":34632,
			"target":34962
		},
		{
			"buffer":0,
			"byteLength":1092,
			"byteOffset":41184,
			"target":34963
		},
		{
			"buffer":0,
			"byteLength":6624,
			"byteOffset":42276,
			"target":34962
		},
		{
			"buffer":0,
			"byteLength":6624,
			"byteOffset":48900,
			"target":34962
		},
		{
			"buffer":0,
			"byteLength":1104,
			"byteOffset":55524,
			"target":34963
		},
		{
			"buffer":0,
			"byteLength":5976,
			"byteOffset":56628,
			"target":34962
		},
		{
			"buffer":0,
			"byteLength":5976,
			"byteOffset":62604,
			"target":34962
		},
		{
			"buffer":0,
			"byteLength":996,
			"byteOffset":68580,
			"target":34963
		},
		{
			"buffer":0,
			"byteLength":5832,
			"byteOffset":69576,
			"target":34962
		},
		{
			"buffer":0,
			"byteLength":5832,
			"byteOffset":75408,
			"target":34962
		},
		{
			"buffer":0,
			"byteLength":972,
			"byteOffset":81240,
			"target":34963
		},
		{
			"buffer":0,
			"byteLength":6552,
			"byteOffset":82212,
			"target":34962
		},
		{
			"buffer":0,
			"byteLength":6552,
			"byteOffset":88764,
			"target":34962
		}
	],
	"buffers":[
		{
			"byteLength":95316,
			"uri":"invaders.bin"
		}
	]
}
